<?xml version="1.0" encoding="utf-8"?>
<!-- Generator: Adobe Illustrator 20.1.0, SVG Export Plug-In . SVG Version: 6.00 Build 0)  -->
<svg version="1.1" xmlns="http://www.w3.org/2000/svg" xmlns:xlink="http://www.w3.org/1999/xlink" x="0px" y="0px"
	 viewBox="0 0 80.2 80.4" style="enable-background:new 0 0 80.2 80.4;" xml:space="preserve">
<style type="text/css">
	.st0{enable-background:new    ;}
	.st1{fill-rule:evenodd;clip-rule:evenodd;fill:#FFFFFF;}
	.st2{opacity:0.9882;}
	.st3{fill:#FEFEFE;}
	.st4{fill:#B06C7E;}
	.st5{fill:#B16E81;}
</style>
<g id="Ellipse_2_1_" class="st0">
	<g id="Ellipse_2">
		<g>
			<circle class="st1" cx="39.8" cy="40.3" r="36"/>
		</g>
	</g>
</g>
<g id="Layer_1_xA0_Image_1_" class="st2">
	<g>
		<g>
			<path class="st3" d="M61.4,40.7c0,9,0,17.9,0,26.9c0,0.7-0.1,0.9-0.9,0.9c-14.2,0-28.3,0-42.5,0c-0.7,0-0.9-0.1-0.9-0.9
				c0-17.9,0-35.8,0-53.8c0-0.7,0.1-0.9,0.9-0.9c14.2,0,28.3,0,42.5,0c0.7,0,0.9,0.1,0.9,0.9C61.4,22.8,61.4,31.7,61.4,40.7z"/>
			<path class="st4" d="M18,56.6c-0.7-1.7-0.6-3.5-0.2-5.3c0.7-3.6,1-7.4,1.6-11c0.6-3.7,1.8-7.3,3-10.9c0.8-2.2,1.3-4.5,2.3-6.6
				c2.5-5.2,8-9.9,14.4-9.6c3,0.1,6-0.3,8.8,1c3.3,1.5,6.1,3.5,7.9,6.9c0.1,0.1,0.1,0.3,0.2,0.3c3,2.2,3.1,5.7,3.8,8.9
				c0.5,2.8,0.2,5.7,0.6,8.5c1,6.9,0.5,13.8,0.5,20.7c0,3-1.5,5.6-3.9,7.6c-1.1,0.9-2.1,0.1-3.2,0.1c-0.5,0-0.1-0.7-0.4-1.1
				c-1.7,0.6-3.5,0.5-5.1,1.4c-1.1,0.6-2.4,0.4-3.4-0.6c-0.6-0.6-1.2-1.1-2-1.4c-0.6-0.2-0.8-0.6-0.8-1.2c0.2-2.4,0.8-4.6,1.9-6.8
				c0.9-1.7,2.5-1.9,4.1-2c1.5-0.1,3,0,4.4-0.1c1.7,0,2.5-0.7,2.5-2.4c0-0.9,0.3-1.7,0.8-2.4c1.2-1.6,2.2-3.4,2.9-5.3
				c0.7-1.7,0.3-3.4-0.2-5c-0.6-1.8-0.9-3.5-0.4-5.4c0.4-1.4-0.1-2.8-0.4-4.1c-0.3-1.8-0.4-3.6-1-5.3C56,23.6,55,22.8,53,22.7
				c-2.4-0.1-4.8,0.2-7,1.2c-3.3,1.5-5.6,4-7.4,7.2c-1.6,2.8-2.3,5.9-2.5,9c-0.2,2.7,0.3,5.5,0.7,8.2c0.6,3.8,1.4,7.6,2.2,11.4
				c0.5,2.5,1.9,4.8,2.8,7.2c0.1,0.3,0.6,0.7,0.2,1.1c-0.3,0.3-0.7,0.1-1.1,0c-1.7-0.8-3.8-0.8-5.1-2.5c-0.2-0.3-0.6-0.3-0.9-0.3
				c-1.8,0.2-3.2-0.6-4.8-1.3c-0.8-0.3-1.7-0.5-2.5-0.6c-1-0.1-1.8-0.5-2.5-1.2c-1-1.2-2.2-2-3.8-2.4c-0.3-0.1-0.5-0.3-0.8-0.5
				c0.1-0.1,0.2-0.2,0.3-0.3c0.5-0.3,1.1-0.4,1-1.2c-0.2-0.7-0.7-1.1-1.4-1.3c-0.6-0.2-1.3-0.1-1.9,0.1C18.4,56.7,18.2,56.7,18,56.6
				z"/>
			<path class="st5" d="M18,56.6c0.9-0.6,2-0.7,3-0.3c0.7,0.3,1.4,0.8,1.3,1.7c-0.1,1-1,1-1.7,1.2C19.4,58.8,18.4,58,18,56.6z"/>
		</g>
	</g>
</g>
</svg>
