<?xml version="1.0" encoding="utf-8"?>
<!-- Generator: Adobe Illustrator 21.1.0, SVG Export Plug-In . SVG Version: 6.00 Build 0)  -->
<svg version="1.1" id="Layer_1" xmlns="http://www.w3.org/2000/svg" xmlns:xlink="http://www.w3.org/1999/xlink" x="0px" y="0px"
	 viewBox="0 0 900 900" style="enable-background:new 0 0 900 900;" xml:space="preserve">
<style type="text/css">
	.st0{fill:#FDFDFD;}
	.st1{fill:#5C93BB;}
	.st2{fill:#B7CFE1;}
	.st3{fill:#7CA9C8;}
	.st4{fill:#A0C0D8;}
</style>
<g>
	<g>
		<path class="st0" d="M451,909c-151.2,0-302.3,0-453.5,0.1c-3.7,0-4.6-0.8-4.6-4.6C-7,602.2-7,299.8-7.1-2.5c0-3.7,0.8-4.6,4.6-4.6
			c302.3,0.1,604.7,0.1,907,0c3.7,0,4.6,0.8,4.6,4.6c-0.1,302.3-0.1,604.7,0,907c0,3.7-0.8,4.6-4.6,4.6C753.3,909,602.2,909,451,909
			z"/>
		<path class="st1" d="M337.8,830.1c-3.3-5.4-5.4-11.4-6.8-17.5c-0.6-2.8-0.8-6-4.9-5.4c-4.3,0.6-4.5,3.8-3.8,7.2
			c0.7,3.1,1.9,6,4.4,8.2c1.4,1.3,3.3,2.4,3.7,5.3c-8.9-0.7-15.8-5-21.6-11c-3.4-3.5-7.4-6.2-11.2-9.1c-0.9-0.7-2.2-1.3-3.2-0.3
			c-1.2,1.1,0,2.2,0.7,3c3.5,4.2,5,9.9,11.2,12.7c-11.8,1-16.3,0.1-31-20.9c-0.9,3.8-0.3,7,0.8,11.1c-6.8-2.4-13.3-2.8-18.6-7.7
			c-5.5-5.2-11.8-9.7-17.6-14.8c-10.6-9.3-10.8-20.7-7.3-32.9c0.6-2.1,1.5-3.5-1.2-4.8c-14.2-7.1-23.8-19-32-32
			c-9.6-15.3-12.9-31.6-11.1-49.9c1.8-18,8.4-33.3,17.6-48.1c2.3-3.7,6.2-5.4,9.6-7.8c3.9-2.8,7.8-5.5,10.4-9.9
			c1.5-2.6,1.7-4.6,0.2-7.3c-4.2-7.7-9-15.3-8.9-24.6c0-16.8-0.6-33.6,2-50.3c1.7-10.9,4.4-21.5,6.8-32.2c1.3-5.8,1.4-11.9,2.4-17.8
			c4.1-22.1,8.2-44.2,12.6-66.2c1.1-5.7,3.1-11.1,4.3-16.9c2.1-9.9,0.1-19.5-0.8-29.2c-0.9-10.5-0.9-20.9,4-30.7
			c0.5-0.9,0.6-2.1,1.3-2.7c8.2-7.1,5.8-16.6,5.9-25.5c0.1-6.6-1.2-13.2-0.5-19.9c1.4-15.5,8.7-28.5,17.3-40.9
			c3.5-5,5.8-10.1,5.2-16.2c-1.8-17.9,3.8-34.2,10.5-50.2c0.9-2.3,2.5-4.3,4-6.3c5.3-6.6,11-12.9,14.6-20.7c0.6-1.3,1.8-2.5,3.1-3.2
			c11.7-6.7,18.8-18.4,29.1-26.4c8.1-6.3,15.2-13,20.7-21.5c1.6-2.4,4.3-3.6,7.1-4.5c11.2-3.4,21.6-8.4,31.8-14.2
			c7.1-4,14.7-7,21.7-11.2c3.9-2.3,8.6-1.3,12.8-0.5c11.2,2.4,22.6,1.2,33.9,1.8c8.7,0.4,16.6,2.3,23.3,8.5
			c7.3,6.7,15.2,12.9,23.1,19c5.7,4.4,13.1,5.7,19.3,9.2c12.5,7,23,16.4,31,28.3c2.9,4.3,6.3,8.1,9.5,12.2
			c8.5,10.9,11.2,24.4,16.5,36.7c3.6,8.4,8.2,15.9,15.4,21.7c5.1,4.1,7.8,9.5,7.8,16c0,2.7,0.5,5.3,1.9,7.6
			c7.8,13.4,13.6,27.8,20.1,41.8c1.1,2.4,1.2,4.8,1.2,7.3c-0.1,10,0,20-0.3,30c-0.2,5.2,1.1,9.8,3.9,14.1c4.7,7.1,9.2,14.2,14,21.2
			c6.5,9.4,8.6,20.4,8.4,31.9c-0.1,6.8,0.1,13.6,0.6,20.5c0.3,4.5,2.5,8.3,4.2,12.2c4.7,11.1,5.9,22.5,3.7,34.2
			c-5.4,28.3-5.2,56.9-4.6,85.5c0.2,11.2,1,22.6,3.8,33.7c1.2,4.8,2.3,9.7,2,14.8c-0.5,7.7,1.2,14.8,4.5,21.7c2,4.2,2.6,9,2.6,13.6
			c0,8.2,1.3,16.2,3.4,24.1c3,11.3,3.7,23,3.6,34.7c0,9.2,1.8,18.2,2.2,27.3c0.5,10.9,0.4,21.9-0.8,32.7c-0.8,7.1-1.9,14.1-3.9,21.1
			c-4.5,16.4-14.6,29.2-25.5,41.7c-7.5,8.6-16.2,12.2-27.7,11.6c-15.8-0.8-30.9,4-46.2,7.2c-5.6,1.2-11.3,1.7-17.3,1.4
			c-11.4-0.6-17.8-9.2-26.1-14.5c-5.9-3.8-11.2-5.3-17.7-1.9c-6.8,3.6-14.1,4.5-21.7,5c-9.5,0.6-18.6,0.1-27.3-3.9
			c-1.4-0.6-3.9-0.7-3.6-2.7c0.3-1.8,2.6-1.7,4.3-1.6c1.1,0.8,2.2-0.2,3.3,0.2c-0.1-0.7-1-0.7-1.3-1.3c-4.8-3.9-9.6-7.7-14.4-11.6
			c-1.2-1-3.3-1.7-2.3-3.8c0.9-1.8,2.7-1.5,4.5-1.4c7.3,0.6,14.6,1.4,21.9,1.5c11.5,0.2,22.3-8.2,26.4-18.9
			c4.3-11.3,3.4-23.2,5.2-34.8c3.4-21.8,3.3-44.2,9.4-65.6c3-10.4,6.6-20.6,11.1-30.4c1.3-2.8,1.3-5.3,0.7-8.2
			c-2.1-10.1-4.3-20.2-8.3-29.8c-7.8-18.8-5.6-37.9-3.1-57.4c1.8-14.1,5.7-27.6,7.6-41.6c1.7-12.4,8.8-22.5,15.5-32.6
			c5.5-8.5,12.3-16.2,16.4-25.6c1.1-2.4,2.1-4.9,2.5-7.6c1.9-15.8,4-31.6,7.1-47.2c3.3-16.9,2.9-34,1.3-51.2
			c-1.1-11.8-6.3-22.8-5.2-34.9c0.5-6,0.9-11.9,1.5-17.9c1.2-11.8,0.4-23.5-3.1-35.1c-2.7-9.2-4.3-18.8-6.3-28.2
			c-3.3-15.2-11.9-27.6-20.9-39.9c-7.9-10.8-17.4-20.3-26.8-29.5c-14.3-14-31.5-23-52.4-21.1c-15,1.4-29.4,5.8-42.8,12.9
			c-5.7,3-11.7,5.4-16.4,10.2c-5.2,5.3-8.2,11.7-11.2,18.2c-10.8,23.5-26.6,42.9-47.5,58.1c-4.2,3-6.2,6.5-6.3,11.5
			c-0.3,7.2-2,14.2-3.5,21.2c-2.7,13.1-5,25.8-0.8,39.4c4.8,15.9,3,32.5,2.4,49c-0.4,11.4-3.4,22.4-4.4,33.6
			c-1.2,13.4-0.3,26.3,3.8,39.4c6.7,21.4,17.9,40.7,27,61c7.3,16.3,18.5,30.9,22.2,48.9c2.3,11.3,3.4,22.8,3.3,34.2
			c-0.2,16.4,1.8,32.5,4.7,48.6c1,5.5,1.6,11.2,0.5,16.8c-0.6,3,0.5,5.6,1.7,8.2c2.2,4.7,3.6,9.7,5.2,14.6c3,9,5.2,18.2,5.4,27.8
			c0.2,8.2,4.4,15.7,5.7,23.7c1.1,6.9,3.3,13.6,2.8,20.7c-0.2,2.3-0.4,4.4-1.7,6.9c-5.6-18.5-6.3-19.6-15.7-24.5
			c-1.3,12-6.1,22.9-9.5,34.2c-0.5,1.6-1,3.4-2,4.5c-10.4,11.7-10.3,26.5-12,40.7c-1.3,11.2-8.5,18.4-16.5,24.5
			c-5.8,4.5-12.3,8.7-19.6,10.7c-2.5,0.7-1.9,2.3-1.7,3.9c0.3,3,0.6,5.9,0.9,8.9C339.1,827.4,341,829.5,337.8,830.1z"/>
		<path class="st2" d="M477,791c1.2,0,2.2,0.5,3.3,1.5c-2,0.9-3.7,0.7-5.4-0.4C475.6,791.8,476.3,791.4,477,791z"/>
		<path class="st3" d="M337.8,830.1c1.7-1.1,0.9-2.9,1.3-4.3c1.1,1.2,0.8,2.7,1,4.1c0.5,1.2,0.8,2.2-1.1,2.2
			C338.6,831.4,338.2,830.8,337.8,830.1z"/>
		<path class="st4" d="M339,832c0.9-0.4,1-1.3,1.1-2.2c0.9,1,1.5,2.3,0.5,3.4C340.1,833.8,339.3,832.8,339,832z"/>
	</g>
</g>
</svg>
